<?xml version="1.0" encoding="utf-8"?>
<!-- Generator: Adobe Illustrator 18.0.0, SVG Export Plug-In . SVG Version: 6.00 Build 0)  -->
<!DOCTYPE svg PUBLIC "-//W3C//DTD SVG 1.1//EN" "http://www.w3.org/Graphics/SVG/1.1/DTD/svg11.dtd">
<svg version="1.1" xmlns="http://www.w3.org/2000/svg" xmlns:xlink="http://www.w3.org/1999/xlink" x="0px" y="0px"
	 viewBox="0 0 65 75" enable-background="new 0 0 65 75" xml:space="preserve">
<g id="background">
</g>
<g id="bucket">
	<g>
		<path fill="#C130C1" d="M52.6,69.1L50.2,70l-2.5,0.8l-2.5,0.7L42.7,72l-2.5,0.4l-2.6,0.3l-2.6,0.2L32.5,73l-2.6,0l-2.6-0.1
			l-2.6-0.2l-2.6-0.3l-2.5-0.5l-2.5-0.6l-2.5-0.7l-2.5-0.8l-0.5-0.2L11.6,69L8.8,42.8L6,16.6L5.8,15l1.7,0l25-0.4
			c4.2-0.1,8.3-0.1,12.5-0.1c4.2,0,8.3,0,12.5,0l2.3,0l-0.2,2.2c-0.4,4.4-1,8.7-1.5,13.1l-0.8,6.5l-0.8,6.5
			c-0.6,4.4-1.1,8.7-1.8,13.1l-1,6.5c-0.3,2.2-0.7,4.3-1,6.5L52.6,69.1z M52.3,68.9c0-2.2,0.1-4.4,0.2-6.6l0.3-6.6
			c0.2-4.4,0.5-8.8,0.7-13.2L54,36l0.5-6.6c0.3-4.4,0.6-8.8,1-13.1l2,2.2c-4.2,0-8.3,0.1-12.5,0c-4.2,0-8.3-0.1-12.5-0.1L7.5,18
			L9,16.4l2.2,26.3l2.1,26.3l-0.6-0.7l2.4,0.9l2.4,0.8l2.4,0.6l2.5,0.5l2.5,0.4l2.5,0.3l2.5,0.2l2.5,0.1l2.5,0l2.5-0.1l2.5-0.2
			l2.5-0.3l2.5-0.5l2.5-0.6l2.4-0.7l2.4-0.8L52.3,68.9z"/>
	</g>
	<ellipse fill="#40A4DF" stroke="#C130C1" stroke-width="3" stroke-miterlimit="10" cx="33" cy="16.1" rx="25.8" ry="10.6"/>
</g>
<g id="handle">
	<path fill="none" stroke="#C130C1" stroke-width="2" stroke-miterlimit="10" d="M7.6,23c-1.7,0-3.4,0-5.1,0c1,15.3,14.7,28,30,28
		s29-12.7,30-28c-1.9,0-3.7,0-5.6,0"/>
</g>
</svg>
