<?xml version="1.0" encoding="utf-8"?>
<!-- Generator: Adobe Illustrator 18.0.0, SVG Export Plug-In . SVG Version: 6.00 Build 0)  -->
<!DOCTYPE svg PUBLIC "-//W3C//DTD SVG 1.1//EN" "http://www.w3.org/Graphics/SVG/1.1/DTD/svg11.dtd">
<svg version="1.1" id="Layer_1" xmlns="http://www.w3.org/2000/svg" xmlns:xlink="http://www.w3.org/1999/xlink" x="0px" y="0px"
	 viewBox="0 0 500 500" enable-background="new 0 0 500 500" xml:space="preserve">
<path fill="#FFFFFF" d="M449.2,309.8l40.7-49.5h-14.5L435.8,309v-48.7h-10.7v107.3h10.7V326l6.3-7.7l40.2,49.3h13.3L449.2,309.8z
	 M322.2,296c2.5-5.7,5.7-10.5,10-14.8c4.2-4.3,9.2-7.7,14.7-10c5.7-2.5,11.5-3.7,17.8-3.7s12.2,1.2,17.7,3.7s10.3,5.8,14.5,10.2
	c1.8,1.8,3.5,3.7,4.8,5.7h12.7c-2.7-5-5.8-9.5-9.8-13.5c-5.2-5.2-11.2-9.3-18-12.3s-14.2-4.5-22-4.5s-15.2,1.5-22,4.5
	s-12.8,7.2-18,12.3c-5.2,5.2-9.2,11.3-12.2,18.2c-3,7-4.5,14.3-4.5,22.2c0,7.8,1.5,15.3,4.5,22.2s7,13,12.2,18.2s11.2,9.3,18,12.3
	s14.2,4.5,22,4.5s15.2-1.5,22-4.5s12.8-7.2,18-12.3c4-4,7.2-8.5,9.8-13.5h-12.5c-1.5,2.2-3.2,4.2-5,6c-4.2,4.2-9,7.5-14.5,10
	s-11.5,3.7-17.7,3.7c-6.3,0-12.2-1.2-17.8-3.7s-10.5-5.8-14.7-10c-4.2-4.3-7.5-9.2-10-14.8s-3.7-11.7-3.7-18S319.7,301.5,322.2,296"
	/>
<path fill="#FFFFFF" d="M196.5,356.8v-96.5h-10.7v107.3h70.7V357h-60V356.8z M82.7,296c2.5-5.7,5.7-10.5,10-14.8
	c4.2-4.3,9.2-7.7,14.7-10c5.7-2.5,11.5-3.7,17.8-3.7s12.2,1.2,17.7,3.7s10.3,5.8,14.5,10.2c1.8,1.8,3.5,3.7,4.8,5.7h12.7
	c-2.7-5-5.8-9.5-9.8-13.5c-5.2-5.2-11.2-9.3-18-12.3s-14.2-4.5-22-4.5s-15.2,1.5-22,4.5s-12.8,7.2-18,12.3s-9.2,11.3-12.2,18.2
	c-3,7-4.5,14.3-4.5,22.2c0,7.8,1.5,15.3,4.5,22.2s7,13,12.2,18.2s11.2,9.3,18,12.3s14.2,4.5,22,4.5s15.2-1.5,22-4.5
	s12.8-7.2,18-12.3c4-4,7.2-8.5,9.8-13.5h-12.5c-1.5,2.2-3.2,4.2-5,6c-4.2,4.2-9,7.5-14.5,10s-11.5,3.7-17.7,3.7
	c-6.3,0-12.2-1.2-17.8-3.7c-5.7-2.5-10.5-5.8-14.7-10c-4.2-4.3-7.5-9.2-10-14.8s-3.7-11.7-3.7-18S80.3,301.5,82.7,296"/>
<path fill="#FFFFFF" d="M188.3,137.7v96.5H199v-96.5h30V127h-70.7v10.7H188.3z M91.5,127H80.8v75.3c0,5,0.8,9.7,2.7,14
	c1.8,4.3,4.3,8.2,7.5,11.3c3.2,3.2,6.8,5.7,11.2,7.7c4.3,1.8,8.8,2.8,13.8,2.8s9.5-1,13.8-2.8s8-4.3,11.2-7.7
	c3.2-3.2,5.7-7,7.5-11.3s2.7-9,2.7-14V127h-10.7v75.3c0,3.5-0.7,6.7-1.8,9.8c-1.3,3-3,5.7-5.2,8s-4.8,4-7.8,5.3s-6.3,1.8-9.7,1.8
	c-3.5,0-6.7-0.7-9.7-1.8c-3-1.3-5.7-3-7.8-5.3c-2.2-2.2-4-4.8-5.2-8c-1.3-3-1.8-6.3-1.8-9.8V127z M41.8,144.7l11.8,37.2H30.2
	L41.8,144.7z M47.5,127H36.3l-34,107.3h11l13.2-41.7H57l13.3,41.7h11L47.5,127z"/>
<path fill="#8EC641" d="M285,138.8c0,0,16.8,0.8,16.5,6.8c-0.3,5.8-5.8,27.2-16.8,26.8"/>
<path fill="#8EC641" d="M286.2,138.8c0,0-20.3,0.8-20,6.8c0.3,5.8,7,27.2,20.3,26.8"/>
<path fill="#8EC641" d="M246,180.2c0,0,0.7-19,4.8-18.5c4.2,0.3,19.2,6.5,18.8,19"/>
<path fill="#8EC641" d="M246,178.7c0,0,0.7,22.8,4.8,22.3c4.2-0.5,19.2-7.8,18.8-22.8"/>
<path fill="#8EC641" d="M323.2,182.5c0,0-0.7,19-4.8,18.5c-4.2-0.3-19.2-6.5-18.8-19"/>
<path fill="#8EC641" d="M323.2,184c0,0-0.7-22.8-4.8-22.3c-4.2,0.5-19.2,7.8-18.8,22.8"/>
<path fill="#8EC641" d="M263.5,212.8c0,0,21.5,29.7,40.8-1.5c-0.3-0.8,5.3-12-20.5-12.5C258.2,198.3,263.5,212.8,263.5,212.8"/>
<polyline fill="none" stroke="#FFFFFF" stroke-width="0.75" points="294.3,234.7 294.3,276.3 289.7,285.3 294.3,291.8 294.3,301.7 
	289.7,306.7 294.3,313.2 294.3,324.7 294.3,327.8 290.2,333.5 294.3,339.3 294.3,350 "/>
<polyline fill="none" stroke="#FFFFFF" stroke-width="0.75" points="273.5,234.8 273.5,276.2 279.8,285 273.5,291.5 273.5,301.2 
	279.8,306 273.5,312.5 273.5,323.8 273.5,327.2 279.2,332.8 273.5,338.5 273.5,349 281.7,369.3 286.3,369.3 294.3,348.3 "/>
<ellipse fill="none" stroke="#FFFFFF" stroke-width="0.75" cx="284.7" cy="181.2" rx="57.7" ry="53.7"/>
</svg>
