<?xml version="1.0" encoding="utf-8"?>
<!-- Generator: Adobe Illustrator 18.0.0, SVG Export Plug-In . SVG Version: 6.00 Build 0)  -->
<!DOCTYPE svg PUBLIC "-//W3C//DTD SVG 1.1//EN" "http://www.w3.org/Graphics/SVG/1.1/DTD/svg11.dtd">
<svg version="1.1" id="Layer_1" xmlns="http://www.w3.org/2000/svg" xmlns:xlink="http://www.w3.org/1999/xlink" x="0px" y="0px"
	 viewBox="0 0 110 100" enable-background="new 0 0 110 100" xml:space="preserve">
<g>
	<defs>
		<rect id="SVGID_1_" x="-71" y="-22" width="252" height="144"/>
	</defs>
	<clipPath id="SVGID_2_">
		<use xlink:href="#SVGID_1_"  overflow="visible"/>
	</clipPath>
	<path clip-path="url(#SVGID_2_)" d="M96.5,59.6l8.2-9.9h-2.9l-7.9,9.7v-9.7h-2.1v21.5h2.1v-8.4l1.3-1.5l8,9.9h2.7L96.5,59.6z
		 M71.1,56.9c0.5-1.1,1.1-2.1,2-3c0.8-0.9,1.8-1.5,2.9-2c1.1-0.5,2.3-0.7,3.6-0.7c1.3,0,2.4,0.2,3.6,0.7c1.1,0.5,2.1,1.2,2.9,2
		c0.4,0.4,0.7,0.7,1,1.1h2.5c-0.5-1-1.2-1.9-2-2.7c-1-1-2.2-1.9-3.6-2.5c-1.4-0.6-2.8-0.9-4.4-0.9c-1.6,0-3,0.3-4.4,0.9
		c-1.4,0.6-2.6,1.4-3.6,2.5c-1,1-1.8,2.3-2.4,3.7c-0.6,1.4-0.9,2.9-0.9,4.5c0,1.6,0.3,3.1,0.9,4.5s1.4,2.6,2.4,3.7
		c1,1,2.2,1.9,3.6,2.5c1.4,0.6,2.8,0.9,4.4,0.9c1.6,0,3-0.3,4.4-0.9c1.4-0.6,2.6-1.4,3.6-2.5c0.8-0.8,1.4-1.7,2-2.7H87
		c-0.3,0.4-0.6,0.8-1,1.2c-0.8,0.8-1.8,1.5-2.9,2c-1.1,0.5-2.3,0.7-3.6,0.7c-1.3,0-2.4-0.2-3.6-0.7c-1.1-0.5-2.1-1.2-2.9-2
		c-0.8-0.9-1.5-1.8-2-3c-0.5-1.1-0.7-2.3-0.7-3.6S70.6,58,71.1,56.9"/>
	<path clip-path="url(#SVGID_2_)" d="M45.9,69.1V49.7h-2.1v21.5h14.1v-2.2H45.9z M23.1,56.9c0.5-1.1,1.1-2.1,2-3
		c0.8-0.9,1.8-1.5,2.9-2c1.1-0.5,2.3-0.7,3.6-0.7c1.3,0,2.4,0.2,3.6,0.7c1.1,0.5,2.1,1.2,2.9,2c0.4,0.4,0.7,0.7,1,1.1h2.5
		c-0.5-1-1.2-1.9-2-2.7c-1-1-2.2-1.9-3.6-2.5c-1.4-0.6-2.8-0.9-4.4-0.9c-1.6,0-3,0.3-4.4,0.9c-1.4,0.6-2.6,1.4-3.6,2.5
		c-1,1-1.8,2.3-2.4,3.7c-0.6,1.4-0.9,2.9-0.9,4.5c0,1.6,0.3,3.1,0.9,4.5s1.4,2.6,2.4,3.7c1,1,2.2,1.9,3.6,2.5
		c1.4,0.6,2.8,0.9,4.4,0.9c1.6,0,3-0.3,4.4-0.9c1.4-0.6,2.6-1.4,3.6-2.5c0.8-0.8,1.4-1.7,2-2.7h-2.5c-0.3,0.4-0.6,0.8-1,1.2
		c-0.8,0.8-1.8,1.5-2.9,2c-1.1,0.5-2.3,0.7-3.6,0.7c-1.3,0-2.4-0.2-3.6-0.7c-1.1-0.5-2.1-1.2-2.9-2c-0.8-0.9-1.5-1.8-2-3
		c-0.5-1.1-0.7-2.3-0.7-3.6S22.6,58,23.1,56.9"/>
	<path clip-path="url(#SVGID_2_)" d="M44.3,25.2v19.3h2.1V25.2h6V23H38.3v2.2H44.3z M24.8,23h-2.1v15.1c0,1,0.2,1.9,0.5,2.8
		c0.4,0.9,0.9,1.6,1.5,2.3c0.6,0.6,1.4,1.2,2.2,1.5c0.9,0.4,1.8,0.6,2.8,0.6c1,0,1.9-0.2,2.8-0.6c0.9-0.4,1.6-0.9,2.2-1.5
		c0.6-0.6,1.1-1.4,1.5-2.3c0.4-0.9,0.5-1.8,0.5-2.8V23h-2.1v15.1c0,0.7-0.1,1.4-0.4,2c-0.3,0.6-0.6,1.1-1,1.6
		c-0.4,0.5-1,0.8-1.6,1.1c-0.6,0.3-1.3,0.4-1.9,0.4c-0.7,0-1.3-0.1-1.9-0.4c-0.6-0.3-1.1-0.6-1.6-1.1c-0.4-0.5-0.8-1-1-1.6
		c-0.3-0.6-0.4-1.3-0.4-2V23z M14.9,26.5l2.4,7.5h-4.7L14.9,26.5z M16,23h-2.2L7,44.5h2.2l2.6-8.4H18l2.7,8.4h2.2L16,23z"/>
</g>
<g>
	<defs>
		<rect id="SVGID_3_" x="-71" y="-22" width="252" height="144"/>
	</defs>
	<clipPath id="SVGID_4_">
		<use xlink:href="#SVGID_3_"  overflow="visible"/>
	</clipPath>
	<path clip-path="url(#SVGID_4_)" fill="#8DC63F" d="M63.6,25.4c0,0,3.4,0.2,3.3,1.4s-1.2,5.5-3.4,5.4"/>
	<path clip-path="url(#SVGID_4_)" fill="#8DC63F" d="M63.9,25.4c0,0-4.1,0.2-4,1.4c0.1,1.2,1.4,5.5,4.1,5.4"/>
	<path clip-path="url(#SVGID_4_)" fill="#8DC63F" d="M55.8,33.7c0,0,0.1-3.8,1-3.7c0.8,0.1,3.9,1.3,3.8,3.8"/>
	<path clip-path="url(#SVGID_4_)" fill="#8DC63F" d="M55.8,33.4c0,0,0.1,4.6,1,4.5c0.8-0.1,3.9-1.6,3.8-4.6"/>
	<path clip-path="url(#SVGID_4_)" fill="#8DC63F" d="M71.3,34.1c0,0-0.1,3.8-1,3.7c-0.8-0.1-3.9-1.3-3.8-3.8"/>
	<path clip-path="url(#SVGID_4_)" fill="#8DC63F" d="M71.3,34.4c0,0-0.1-4.6-1-4.5c-0.8,0.1-3.9,1.6-3.8,4.6"/>
	<path clip-path="url(#SVGID_4_)" fill="#8DC63F" d="M59.3,40.2c0,0,4.3,6,8.2-0.3c-0.1-0.2,1.1-2.4-4.1-2.5
		C58.3,37.3,59.3,40.2,59.3,40.2"/>
</g>
<polyline fill="none" stroke="#000000" stroke-width="0.75" points="65.5,44.6 65.5,52.9 64.6,54.7 65.5,56 65.5,58 64.6,59 
	65.5,60.3 65.5,62.6 65.5,63.3 64.7,64.4 65.5,65.5 65.5,67.7 "/>
<polyline fill="none" stroke="#000000" stroke-width="0.75" points="61.3,44.6 61.3,52.9 62.6,54.7 61.3,56 61.3,57.9 62.6,58.9 
	61.3,60.2 61.3,62.5 61.3,63.1 62.5,64.2 61.3,65.4 61.3,67.5 62.9,71.6 63.9,71.6 65.5,67.4 "/>
<g>
	<defs>
		<rect id="SVGID_5_" x="-71" y="-22" width="252" height="144"/>
	</defs>
	<clipPath id="SVGID_6_">
		<use xlink:href="#SVGID_5_"  overflow="visible"/>
	</clipPath>
	<ellipse clip-path="url(#SVGID_6_)" fill="none" stroke="#000000" stroke-width="0.75" cx="63.6" cy="33.9" rx="11.6" ry="10.7"/>
</g>
</svg>
