<?xml version="1.0" encoding="utf-8"?>
<!-- Generator: Adobe Illustrator 18.0.0, SVG Export Plug-In . SVG Version: 6.00 Build 0)  -->
<!DOCTYPE svg PUBLIC "-//W3C//DTD SVG 1.1//EN" "http://www.w3.org/Graphics/SVG/1.1/DTD/svg11.dtd">
<svg version="1.1" id="Layer_1" xmlns="http://www.w3.org/2000/svg" xmlns:xlink="http://www.w3.org/1999/xlink" x="0px" y="0px"
	 viewBox="0 0 182 80" enable-background="new 0 0 182 80" xml:space="preserve">
<path fill="#8EC641" d="M22.6,39.7c0,0,0.6-11.1,4.5-10.9c3.9,0.2,18,3.9,17.8,11.1"/>
<path fill="#8EC641" d="M22.6,38.9c0,0,0.6,13.4,4.5,13.2s18-4.7,17.8-13.4"/>
<path fill="#8EC641" d="M49.9,65.6c0,0-12.6-0.4-12.2-3.1c0.2-2.7,4.3-12.8,12.6-12.6"/>
<path fill="#8EC641" d="M48.9,65.6c0,0,15.1-0.4,14.9-3.1c-0.2-2.7-5.2-12.8-15.1-12.6"/>
<path fill="#8EC641" d="M51.3,14.3c0,0,12.6,0.4,12.2,3.1c-0.2,2.7-4.3,12.8-12.6,12.6"/>
<path fill="#8EC641" d="M52.4,14.3c0,0-15.1,0.4-14.9,3.1S42.7,30.2,52.6,30"/>
<path fill="#8EC641" d="M71.6,54c0,0,19.6-14.2-1-27c-0.4,0.2-7.8-3.5-8.3,13.4C61.9,57.5,71.6,54,71.6,54"/>
<polyline fill="none" stroke="#010101" stroke-width="0.75" points="86,33.5 113.5,33.5 119.5,36.6 123.8,33.5 130.4,33.5 
	133.5,36.6 137.8,33.5 145.5,33.5 147.5,33.5 151.5,36.2 155.2,33.5 162.2,33.5 "/>
<polyline fill="none" stroke="#010101" stroke-width="0.75" points="86,47.4 113.5,47.4 119.3,43 123.6,47.4 130,47.4 133.3,43 
	137.4,47.4 145.1,47.4 147.1,47.4 150.8,43.7 154.6,47.4 161.6,47.4 175,42 175,38.9 161.2,33.5 "/>
<ellipse fill="none" stroke="#010101" stroke-width="0.75" cx="50.5" cy="39.9" rx="35.5" ry="38.2"/>
</svg>
