<?xml version="1.0" encoding="utf-8"?>
<!-- Generator: Adobe Illustrator 18.0.0, SVG Export Plug-In . SVG Version: 6.00 Build 0)  -->
<!DOCTYPE svg PUBLIC "-//W3C//DTD SVG 1.1//EN" "http://www.w3.org/Graphics/SVG/1.1/DTD/svg11.dtd">
<svg version="1.1" id="Layer_1" xmlns="http://www.w3.org/2000/svg" xmlns:xlink="http://www.w3.org/1999/xlink" x="0px" y="0px"
	 viewBox="0 0 182 80" enable-background="new 0 0 182 80" xml:space="preserve">
<path fill="#8EC641" d="M95.1,4.9c0,0,5.4,0.3,5.3,2.2c-0.1,1.9-1.9,8.7-5.4,8.6"/>
<path fill="#8EC641" d="M95.5,4.9c0,0-6.5,0.3-6.4,2.2c0.1,1.9,2.3,8.7,6.5,8.6"/>
<path fill="#8EC641" d="M82.6,18.1c0,0,0.2-6.1,1.5-5.9c1.3,0.1,6.2,2.1,6.1,6.1"/>
<path fill="#8EC641" d="M82.6,17.6c0,0,0.2,7.3,1.5,7.2c1.3-0.1,6.2-2.5,6.1-7.3"/>
<path fill="#8EC641" d="M107.4,18.8c0,0-0.2,6.1-1.5,5.9c-1.3-0.1-6.2-2.1-6.1-6.1"/>
<path fill="#8EC641" d="M107.4,19.3c0,0-0.2-7.3-1.5-7.2c-1.3,0.1-6.2,2.5-6.1,7.3"/>
<path fill="#8EC641" d="M88.2,28.6c0,0,6.9,9.5,13.1-0.5c-0.1-0.2,1.7-3.8-6.5-4C86.5,23.9,88.2,28.6,88.2,28.6"/>
<polyline fill="none" stroke="#010101" stroke-width="0.75" points="98.1,35.6 98.1,48.9 96.6,51.8 98.1,53.9 98.1,57.1 96.6,58.6 
	98.1,60.7 98.1,64.4 98.1,65.4 96.8,67.3 98.1,69.1 98.1,72.5 "/>
<polyline fill="none" stroke="#010101" stroke-width="0.75" points="91.4,35.6 91.4,48.9 93.5,51.7 91.4,53.8 91.4,56.9 93.5,58.5 
	91.4,60.5 91.4,64.2 91.4,65.2 93.2,67 91.4,68.8 91.4,72.2 94,78.7 95.5,78.7 98.1,72 "/>
<ellipse fill="none" stroke="#010101" stroke-width="0.75" cx="95" cy="18.4" rx="18.5" ry="17.2"/>
</svg>
