<?xml version="1.0" encoding="utf-8"?>
<!-- Generator: Adobe Illustrator 18.0.0, SVG Export Plug-In . SVG Version: 6.00 Build 0)  -->
<!DOCTYPE svg PUBLIC "-//W3C//DTD SVG 1.1//EN" "http://www.w3.org/Graphics/SVG/1.1/DTD/svg11.dtd">
<svg version="1.1" id="Layer_1" xmlns="http://www.w3.org/2000/svg" xmlns:xlink="http://www.w3.org/1999/xlink" x="0px" y="0px"
	 viewBox="0 0 75 150" enable-background="new 0 0 75 150" xml:space="preserve">
<path fill="#873D22" d="M63,46c0,13.8-11.2,25-25,25S13,59.8,13,46s11.2-25,25-25S63,32.2,63,46z M38,33.5
	c-6.9,0-12.5,5.6-12.5,12.5S31.1,58.5,38,58.5S50.5,52.9,50.5,46S44.9,33.5,38,33.5z"/>
<path fill="#873D22" d="M38.1,129h-0.2c-4.1,0-7.4-3.3-7.4-7.4V69h15v52.6C45.5,125.7,42.2,129,38.1,129z"/>
<rect x="44.5" y="113" fill="#873D22" width="15" height="10"/>
<rect x="44.5" y="99.5" fill="#873D22" width="15" height="10"/>
</svg>
