<?xml version="1.0" encoding="utf-8"?>
<!-- Generator: Adobe Illustrator 18.0.0, SVG Export Plug-In . SVG Version: 6.00 Build 0)  -->
<!DOCTYPE svg PUBLIC "-//W3C//DTD SVG 1.1//EN" "http://www.w3.org/Graphics/SVG/1.1/DTD/svg11.dtd">
<svg version="1.1" xmlns="http://www.w3.org/2000/svg" xmlns:xlink="http://www.w3.org/1999/xlink" x="0px" y="0px"
	 viewBox="0 0 400 200" enable-background="new 0 0 400 200" xml:space="preserve">
<g id="background">
</g>
<g id="truck_x5F_body">
	<linearGradient id="SVGID_1_" gradientUnits="userSpaceOnUse" x1="101.5" y1="100" x2="298.5" y2="100">
		<stop  offset="0" style="stop-color:#FF0000"/>
		<stop  offset="1" style="stop-color:#FF0000"/>
	</linearGradient>
	<linearGradient id="SVGID_2_" gradientUnits="userSpaceOnUse" x1="100" y1="100" x2="300" y2="100">
		<stop  offset="0" style="stop-color:#FF0000"/>
		<stop  offset="1" style="stop-color:#FF0000"/>
	</linearGradient>
	
		<rect x="101.5" y="81.5" fill="url(#SVGID_1_)" stroke="url(#SVGID_2_)" stroke-width="3" stroke-miterlimit="10" width="197" height="37"/>
</g>
<g id="truck_x5F_sep">
	<line fill="none" stroke="#2C00E5" stroke-miterlimit="10" x1="300" y1="120.5" x2="100" y2="120.5"/>
</g>
<g id="tlb">
	<rect x="100" y="121" fill="#424C51" width="245" height="6"/>
</g>
<g id="metal_x5F_back">
</g>
<g id="truck_x5F_head">
	<polygon fill="#A06B15" points="345,121 305,121 305,91 345,101 	"/>
	<polygon fill="#A06B15" points="331,107.5 305,107.5 305,80.5 326,87.7 	"/>
</g>
<g id="wheels">
	<circle stroke="#FFFFFF" stroke-width="2" stroke-miterlimit="10" cx="143" cy="130" r="10"/>
	<circle fill="#7DFF00" cx="143" cy="130" r="4"/>
	<circle stroke="#FFFFFF" stroke-width="2" stroke-miterlimit="10" cx="121" cy="130" r="10"/>
	<circle fill="#7DFF00" cx="121" cy="130" r="4"/>
	<circle stroke="#FFFFFF" stroke-width="2" stroke-miterlimit="10" cx="267" cy="130" r="10"/>
	<path fill="#7DFF00" d="M271,129.4c0.4,2.7-1.9,5-4.6,4.6c-1.7-0.3-3.1-1.6-3.3-3.3c-0.4-2.7,1.9-5,4.6-4.6
		C269.3,126.3,270.7,127.7,271,129.4z"/>
	<circle stroke="#FFFFFF" stroke-width="2" stroke-miterlimit="10" cx="289" cy="130" r="10"/>
	<circle fill="#7DFF00" cx="289" cy="130" r="4"/>
	<circle stroke="#FFFFFF" stroke-width="2" stroke-miterlimit="10" cx="334" cy="130" r="10"/>
	<circle fill="#7DFF00" cx="334" cy="130" r="4"/>
</g>
<g id="exhaust_x5F_pipe">
	<path fill="#FC003C" d="M305,87h-2V75c0-1.1,0.9-2,2-2l0,0V87z"/>
	<rect x="302.5" y="86.5" fill="#4E5143" width="3" height="35"/>
</g>
<g id="grill">
	<line fill="none" stroke="#000000" stroke-miterlimit="10" x1="342" y1="104.5" x2="345" y2="104.5"/>
	<line fill="none" stroke="#000000" stroke-miterlimit="10" x1="342" y1="109.5" x2="345" y2="109.5"/>
	<line fill="none" stroke="#000000" stroke-miterlimit="10" x1="342" y1="114.5" x2="345" y2="114.5"/>
	<line fill="none" stroke="#000000" stroke-miterlimit="10" x1="342" y1="119.5" x2="345" y2="119.5"/>
</g>
<g id="door">
	<path d="M312.5,49"/>
	<path d="M322.5,49"/>
	<path d="M312.5,49"/>
	<path d="M320-15"/>
	<path d="M317.5-15"/>
	<path d="M312.5,63.8"/>
</g>
<g id="window">
</g>
<g id="Razroo">
	<text transform="matrix(1 0 0 1 133.989 106.2625)" fill="#FFFFFF" font-family="'AndaleMono'" font-size="20">R A Z R O O</text>
</g>
</svg>
